<?xml version="1.0" encoding="utf-8"?>
<!-- Generator: Adobe Illustrator 24.1.1, SVG Export Plug-In . SVG Version: 6.00 Build 0)  -->
<svg version="1.1" id="Layer_1" xmlns="http://www.w3.org/2000/svg" xmlns:xlink="http://www.w3.org/1999/xlink" x="0px" y="0px"
	 viewBox="0 0 205 205" style="enable-background:new 0 0 205 205;" xml:space="preserve">
<style type="text/css">
	.st0{fill:#00612e;}
</style>
<g>
	<path class="st0" d="M173.8,91.4c-0.1,10.4-2.2,20.4-6.4,29.9c-4.3,9.9-11.9,18.1-20.3,24.6c-16.3,12.6-37.7,17.2-57.9,13.6
		c-41.8-7.6-67.7-51.1-56.9-91.6c9.4-35.1,47.4-54.6,81.9-48.4C148.6,25.7,173.5,56.9,173.8,91.4c0-1.3,2.4-2.6,2.3-3.9
		c-0.4-42.6-37.1-76.2-79.5-72.9C58.8,17.5,29,51.7,27.4,88.9c-1.8,42.6,35,77.5,77,75.7c38-1.6,68.7-34.8,71.6-72
		c0.1-1.7,0.2-3.4,0.2-5.1C176.1,88.8,173.8,90.1,173.8,91.4"/>
	<g>
		<path class="st0" d="M96.8,46.7v69.5l-0.1,8.1l0.2,7c0.6,6.7,3.1,10.6,7.5,11.7c3.1,0.8,5.4,1.3,6.9,1.3c1.7,0,2.5,0.5,2.6,1.5
			c0.1,1.4-0.9,2.1-2.9,2.1c-0.9,0-2.8-0.1-5.6-0.3c-1.8-0.1-4.7-0.2-8.7-0.2l-5.9-0.2l-6.5,0.1c-3.3,0-5.7,0.1-7.4,0.3
			c-2.2,0.3-3.7,0.4-4.7,0.4c-1.4,0-2.2-0.5-2.2-1.6c0-1,0.9-1.7,2.7-2c4.3-0.7,7.3-3.1,8.9-7.3c1.6-4.2,2.4-11.8,2.4-22.8V63.8
			c0-11.6-0.7-19-2.1-22.1c-1.4-3.1-4.9-4.9-10.4-5.5c-1.5-0.1-2.2-0.7-2.2-1.7c0.1-1.3,1.1-2,3.2-2c1.1,0,2.5,0.1,4.2,0.4
			c3.5,0.5,6.4,0.7,8.7,0.7c3.5,0,8.7-0.3,15.5-0.9c3.5-0.3,6.4-0.4,8.6-0.4c11.6,0,21,2.8,28.3,8.4c7.2,5.6,10.9,12.9,10.9,21.8
			c0,10.9-4.4,19.4-13.3,25.7c-6.7,4.7-13.7,7-21.1,7c-3.5,0-6.7-0.4-9.6-1.1c-2.9-0.8-4.3-1.6-4.2-2.4c0.1-0.7,0.6-1,1.6-1
			c0.4,0,1,0.1,1.7,0.3c1.3,0.4,3.3,0.6,6.1,0.6c8,0,14.3-2.2,19.1-6.6c4.8-4.4,7.2-10.2,7.2-17.5c0-8.4-3.2-15.4-9.5-20.9
			c-6.3-5.5-14.3-8.3-24-8.3c-2.2,0-3.7,0.4-4.6,1.2c-0.8,0.8-1.2,2.4-1.2,4.7L96.8,46.7z"/>
	</g>
	<g>
		<path class="st0" d="M14.2,138c-1.9-1.5-3.5-3.4-4.6-5.8c-0.6-1.2-0.9-2.4-0.9-3.6c-0.1-1.2,0.1-2.3,0.5-3.4c0.4-1.1,1-2,1.8-2.9
			c0.8-0.9,1.9-1.6,3.1-2.2c1.3-0.6,2.5-0.9,3.7-1c1.2-0.1,2.4,0.1,3.4,0.5c1.1,0.4,2,1,2.9,1.9c0.9,0.8,1.6,1.9,2.1,3.1
			c0.6,1.2,0.9,2.4,1.1,3.6c0.2,1.2,0.1,2.4-0.3,3.6l-3.1-1.1c0.3-0.7,0.4-1.5,0.3-2.4c-0.1-0.8-0.3-1.7-0.6-2.5
			c-0.4-0.8-0.9-1.5-1.5-2c-0.6-0.5-1.3-0.9-2-1.2c-0.7-0.2-1.5-0.3-2.3-0.3c-0.8,0.1-1.6,0.3-2.4,0.6c-0.9,0.4-1.6,0.9-2.2,1.5
			c-0.6,0.6-1,1.2-1.4,2c-0.3,0.7-0.5,1.5-0.4,2.3c0,0.8,0.2,1.6,0.6,2.4c0.3,0.7,0.7,1.4,1.1,1.9c0.4,0.6,0.9,1,1.4,1.4l3.7-1.7
			l-1.5-3.2l2.6-1.2l2.8,6.1L14.2,138z"/>
	</g>
	<g>
		<path class="st0" d="M22.1,137.3c1.1-0.8,2.3-1.4,3.5-1.7c1.2-0.3,2.3-0.4,3.5-0.2c1.1,0.2,2.2,0.6,3.2,1.2c1,0.6,1.9,1.5,2.7,2.6
			c0.8,1.1,1.4,2.2,1.8,3.4c0.3,1.2,0.4,2.3,0.3,3.4c-0.2,1.1-0.5,2.2-1.2,3.3c-0.6,1-1.5,2-2.6,2.8c-1.1,0.8-2.2,1.4-3.4,1.7
			c-1.2,0.3-2.3,0.4-3.5,0.2c-1.1-0.2-2.2-0.6-3.3-1.2c-1-0.6-2-1.5-2.8-2.6c-0.8-1.1-1.4-2.2-1.7-3.4c-0.3-1.2-0.4-2.3-0.3-3.4
			c0.2-1.1,0.5-2.2,1.2-3.2C20.2,139,21,138.1,22.1,137.3z M24.2,139.8c-0.7,0.6-1.4,1.2-1.8,1.9c-0.5,0.7-0.8,1.4-0.9,2.2
			c-0.1,0.8-0.1,1.5,0,2.3c0.2,0.8,0.5,1.5,1.1,2.3c0.5,0.7,1.2,1.3,1.9,1.7c0.7,0.4,1.4,0.6,2.2,0.7c0.8,0.1,1.6,0,2.4-0.2
			c0.8-0.2,1.6-0.6,2.3-1.2c0.7-0.5,1.3-1.1,1.7-1.8c0.4-0.7,0.7-1.4,0.9-2.2c0.1-0.8,0.1-1.5-0.1-2.3c-0.2-0.8-0.5-1.5-1.1-2.3
			c-0.5-0.7-1.2-1.3-1.8-1.7c-0.7-0.4-1.4-0.6-2.2-0.7c-0.8-0.1-1.5,0-2.3,0.2C25.6,138.9,24.9,139.3,24.2,139.8z"/>
	</g>
	<g>
		<path class="st0" d="M41.4,147.5l2.3,2.1l-10,10.7l5.4,5.1l-1.9,2l-7.7-7.2L41.4,147.5z"/>
	</g>
	<g>
		<path class="st0" d="M49.7,155.1l9.2,6.4l-1.6,2.3l-6.7-4.7l-2.6,3.7l6.3,4.4l-1.6,2.3l-6.3-4.4l-4.1,5.9l-2.5-1.8L49.7,155.1z"/>
	</g>
	<g>
		<path class="st0" d="M65.3,165.1l6.4,2.4c1.1,0.4,2,1,2.9,1.7c0.9,0.7,1.6,1.5,2.1,2.5c0.5,1,0.8,2,0.9,3.2
			c0.1,1.2-0.1,2.5-0.7,3.9c-0.5,1.4-1.2,2.5-2.2,3.3c-0.9,0.8-1.9,1.4-3,1.8c-1.1,0.4-2.2,0.5-3.4,0.4c-1.1-0.1-2.2-0.3-3.2-0.6
			l-6.1-2.3L65.3,165.1z M65.3,180.7c0.9,0.3,1.8,0.6,2.7,0.7c0.9,0.1,1.7,0,2.5-0.2s1.4-0.6,2.1-1.2c0.6-0.6,1.1-1.4,1.5-2.3
			c0.4-1,0.5-1.9,0.5-2.7c0-0.8-0.3-1.6-0.6-2.2c-0.4-0.6-0.9-1.2-1.6-1.7c-0.7-0.5-1.4-0.9-2.3-1.2l-2.6-1l-4.2,11.1L65.3,180.7z"
			/>
	</g>
	<g>
		<path class="st0" d="M81.3,170.8l11.4,2.1l-0.5,2.8l-8.3-1.5l-0.8,4.2l7.9,1.4l-0.5,2.8l-7.9-1.4l-0.8,4.6l8.7,1.6L90,190
			l-11.8-2.1L81.3,170.8z"/>
	</g>
	<g>
		<path class="st0" d="M100.7,173.3l5.8-0.3c0.8,0,1.6,0,2.4,0.1c0.8,0.1,1.5,0.4,2.1,0.7c0.6,0.4,1.1,0.8,1.5,1.5
			c0.4,0.6,0.6,1.4,0.7,2.4c0.1,1.1-0.1,2-0.4,2.7c-0.3,0.7-0.8,1.2-1.4,1.6c-0.6,0.4-1.3,0.7-2.2,0.9c-0.8,0.2-1.7,0.3-2.6,0.3
			l-2.2,0.1l0.4,7.2l-3.1,0.2L100.7,173.3z M106.1,180.5c0.4,0,0.9-0.1,1.4-0.1c0.5-0.1,0.9-0.2,1.3-0.4c0.4-0.2,0.7-0.4,0.9-0.8
			c0.2-0.3,0.3-0.8,0.3-1.4c0-0.5-0.2-1-0.4-1.3c-0.2-0.3-0.6-0.5-0.9-0.7c-0.4-0.2-0.8-0.2-1.2-0.3c-0.4,0-0.9,0-1.3,0l-2.2,0.1
			l0.3,4.9L106.1,180.5z"/>
	</g>
	<g>
		<path class="st0" d="M114.3,172.2l3.1-0.5l2.9,17.2l-3.1,0.5L114.3,172.2z"/>
	</g>
	<g>
		<path class="st0" d="M119.8,171.3l11.1-3.2l0.8,2.7l-8.1,2.4l1.2,4.1l7.7-2.2l0.8,2.7l-7.7,2.2l1.3,4.5l8.5-2.5l0.8,2.7l-11.5,3.4
			L119.8,171.3z"/>
	</g>
	<g>
		<path class="st0" d="M132.6,167.4l5.5-2.6c0.8-0.4,1.5-0.6,2.3-0.8c0.8-0.2,1.5-0.3,2.2-0.2c0.7,0.1,1.4,0.3,2,0.7
			c0.6,0.4,1.1,1.1,1.5,2c0.5,1.1,0.7,2.2,0.4,3.3c-0.3,1.1-0.9,2-2,2.7l7.5,4.9l-3.4,1.6l-6.8-4.9l-2,1l3.2,6.7l-2.8,1.3
			L132.6,167.4z M140.8,171.7c0.4-0.2,0.8-0.4,1.2-0.6c0.4-0.2,0.7-0.5,1-0.8c0.3-0.3,0.4-0.6,0.5-1c0.1-0.4,0-0.8-0.3-1.4
			c-0.2-0.5-0.5-0.8-0.8-1c-0.3-0.2-0.7-0.3-1.1-0.3c-0.4,0-0.8,0.1-1.2,0.2c-0.4,0.1-0.8,0.3-1.1,0.5l-2.4,1.2l2,4.3L140.8,171.7z"
			/>
	</g>
	<g>
		<path class="st0" d="M145,161.2l4.8-3.4c0.7-0.5,1.4-0.9,2.1-1.2c0.7-0.3,1.5-0.5,2.2-0.5c0.7,0,1.4,0.1,2,0.5
			c0.7,0.3,1.3,0.9,1.8,1.7c0.6,0.9,1,1.7,1.1,2.5c0.1,0.8,0,1.5-0.4,2.2c-0.3,0.7-0.8,1.3-1.4,1.9c-0.6,0.6-1.3,1.2-2.1,1.7
			l-1.8,1.3l4.1,5.9l-2.5,1.8L145,161.2z M153.4,164.6c0.4-0.3,0.7-0.5,1.1-0.8c0.4-0.3,0.7-0.6,0.9-1c0.2-0.4,0.4-0.8,0.4-1.2
			c0-0.4-0.1-0.9-0.5-1.3c-0.3-0.4-0.7-0.7-1-0.9c-0.4-0.1-0.8-0.2-1.1-0.1c-0.4,0.1-0.8,0.2-1.2,0.4c-0.4,0.2-0.8,0.4-1.1,0.7
			l-1.8,1.3l2.8,4L153.4,164.6z"/>
	</g>
	<g>
		<path class="st0" d="M161.6,160.5c-1-1-1.7-2-2.2-3.1c-0.5-1.1-0.8-2.3-0.8-3.4c0-1.1,0.2-2.3,0.7-3.4c0.5-1.1,1.2-2.1,2.1-3.1
			c0.9-1,1.9-1.7,3-2.3c1.1-0.5,2.2-0.8,3.4-0.8c1.1,0,2.3,0.2,3.4,0.6c1.1,0.5,2.2,1.2,3.2,2.1c1,0.9,1.7,2,2.2,3.1
			c0.5,1.1,0.7,2.2,0.7,3.4c0,1.1-0.2,2.3-0.7,3.4c-0.5,1.1-1.2,2.2-2.1,3.2c-0.9,1-2,1.7-3,2.2c-1.1,0.5-2.2,0.8-3.3,0.8
			c-1.1,0-2.3-0.2-3.4-0.6C163.6,162.1,162.5,161.4,161.6,160.5z M163.7,158c0.7,0.7,1.4,1.1,2.2,1.5c0.8,0.3,1.5,0.5,2.3,0.5
			c0.8,0,1.5-0.1,2.3-0.4c0.7-0.3,1.4-0.8,2.1-1.4c0.6-0.6,1.1-1.4,1.4-2.1c0.3-0.8,0.4-1.5,0.3-2.3c0-0.8-0.3-1.5-0.6-2.3
			c-0.4-0.8-0.9-1.5-1.6-2.1c-0.6-0.6-1.3-1.1-2-1.4c-0.7-0.3-1.5-0.5-2.3-0.5c-0.8,0-1.5,0.1-2.3,0.4c-0.7,0.3-1.4,0.8-2.1,1.4
			c-0.6,0.6-1.1,1.3-1.4,2.1c-0.3,0.7-0.4,1.5-0.4,2.3c0,0.8,0.2,1.5,0.6,2.3C162.6,156.7,163.1,157.4,163.7,158z"/>
	</g>
	<g>
		<path class="st0" d="M168.6,140.2l2.2-3.5l15.4-0.3l0,0l-11-6.8l1.6-2.6l14.8,9.2l-2.1,3.3l-15.9,0.3l0,0l11.3,7.1l-1.6,2.6
			L168.6,140.2z"/>
	</g>
	<g>
		<path class="st0" d="M181.6,122.6l-2,5l-2.6-1l5.1-12.8l2.6,1l-2,5l13.6,5.4l-1.1,2.9L181.6,122.6z"/>
	</g>
</g>
</svg>
